<svg id="Layer_1" data-name="Layer 1" xmlns="http://www.w3.org/2000/svg" xmlns:xlink="http://www.w3.org/1999/xlink" viewBox="0 0 357.59 87.15"><defs><style>.cls-1{fill:url(#linear-gradient);}</style><linearGradient id="linear-gradient" x1="65.97" y1="71.18" x2="423.56" y2="71.18" gradientUnits="userSpaceOnUse"><stop offset="0" stop-color="#49c8f3"/><stop offset="1" stop-color="#4b89c8"/></linearGradient></defs><path class="cls-1" d="M84.12,37.9H66V31h44.17V37.9H91.91V94.07H84.12Z" transform="translate(-65.97 -27.61)"/><path class="cls-1" d="M114.57,72.91c.17,11.14,6.9,15.73,14.69,15.73a26.83,26.83,0,0,0,11.86-2.34l1.33,5.9A33.08,33.08,0,0,1,128.2,95c-13.19,0-21.07-9.18-21.07-22.84s7.61-24.44,20.1-24.44c14,0,17.7,13,17.7,21.35a32.17,32.17,0,0,1-.27,3.83ZM137.4,67c.09-5.25-2-13.39-10.79-13.39-7.88,0-11.33,7.68-12,13.39Z" transform="translate(-65.97 -27.61)"/><path class="cls-1" d="M154.57,62.9c0-5.34-.08-9.93-.35-14.14H161l.26,8.89h.36c1.94-6.08,6.63-9.92,11.86-9.92a8.29,8.29,0,0,1,2.21.28v7.77a11.49,11.49,0,0,0-2.66-.28c-5.48,0-9.38,4.4-10.44,10.58a24,24,0,0,0-.36,3.84V94.07h-7.7Z" transform="translate(-65.97 -27.61)"/><path class="cls-1" d="M206.8,94.07l-.62-5.71h-.27a15.68,15.68,0,0,1-13.1,6.74c-8.67,0-13.1-6.46-13.1-13,0-11,9.21-17,25.76-16.85V64.3c0-3.74-1-10.48-9.74-10.48a20.49,20.49,0,0,0-11.15,3.37l-1.77-5.43a25.44,25.44,0,0,1,14.07-4c13.1,0,16.29,9.46,16.29,18.54V83.21a67.55,67.55,0,0,0,.71,10.86ZM205.65,71c-8.5-.19-18.15,1.4-18.15,10.2,0,5.34,3.36,7.87,7.35,7.87a10.72,10.72,0,0,0,10.35-7.59,8.9,8.9,0,0,0,.45-2.62Z" transform="translate(-65.97 -27.61)"/><path class="cls-1" d="M281.5,27.61V82.37c0,4,.09,8.61.36,11.7h-7l-.35-7.86h-.18a15.74,15.74,0,0,1-14.6,8.89c-10.36,0-18.33-9.27-18.33-23-.09-15.07,8.77-24.34,19.21-24.34,6.55,0,11,3.28,12.93,6.93h.17v-27ZM273.71,67.2a15.63,15.63,0,0,0-.35-3.46c-1.15-5.24-5.4-9.55-11.24-9.55-8.06,0-12.84,7.49-12.84,17.51,0,9.17,4.25,16.75,12.66,16.75,5.22,0,10-3.65,11.42-9.83a15.33,15.33,0,0,0,.35-3.55Z" transform="translate(-65.97 -27.61)"/><path class="cls-1" d="M303.1,36a4.83,4.83,0,1,1-9.65,0,4.89,4.89,0,0,1,4.87-5.15C301.24,30.88,303.1,33.13,303.1,36Zm-8.68,58V48.76h7.79V94.07Z" transform="translate(-65.97 -27.61)"/><path class="cls-1" d="M338.86,94.07l-.62-5.71H338a15.68,15.68,0,0,1-13.1,6.74c-8.67,0-13.1-6.46-13.1-13,0-11,9.21-17,25.76-16.85V64.3c0-3.74-1-10.48-9.74-10.48a20.49,20.49,0,0,0-11.15,3.37l-1.77-5.43a25.44,25.44,0,0,1,14.07-4c13.1,0,16.29,9.46,16.29,18.54V83.21a67.55,67.55,0,0,0,.71,10.86ZM337.71,71c-8.5-.19-18.15,1.4-18.15,10.2,0,5.34,3.36,7.87,7.35,7.87a10.73,10.73,0,0,0,10.35-7.59,8.9,8.9,0,0,0,.45-2.62Z" transform="translate(-65.97 -27.61)"/><path class="cls-1" d="M357.8,62.9c0-5.34-.09-9.93-.36-14.14h6.82l.26,8.89h.36c1.95-6.08,6.64-9.92,11.86-9.92A8.29,8.29,0,0,1,379,48v7.77a11.4,11.4,0,0,0-2.65-.28c-5.49,0-9.39,4.4-10.45,10.58a24.08,24.08,0,0,0-.35,3.84V94.07h-7.7Z" transform="translate(-65.97 -27.61)"/><path class="cls-1" d="M391.78,48.76l9.39,26.78c1,3,2,6.55,2.74,9.26h.18c.79-2.71,1.68-6.18,2.74-9.45l8.5-26.59h8.23l-11.68,32.3c-5.58,15.54-9.38,23.49-14.7,28.36a20.71,20.71,0,0,1-9.56,5.34l-1.94-6.93a20.22,20.22,0,0,0,6.81-4A24.86,24.86,0,0,0,399,94.63a6,6,0,0,0,.62-2,7.33,7.33,0,0,0-.53-2.16L383.29,48.76Z" transform="translate(-65.97 -27.61)"/></svg>